<svg width="305" height="71" viewBox="0 0 305 71" fill="none" xmlns="http://www.w3.org/2000/svg">
    <g filter="url(#filter0_f_1778_17906)">
        <path fill-rule="evenodd" clip-rule="evenodd"
              d="M281.013 31.6325L272.476 30.1356C267.992 29.3437 265.75 28.1992 265.75 25.1176C265.75 22.036 268.767 19.9233 273.424 19.9233C278.081 19.9233 281.616 22.2122 282.047 25.7332H292.137C291.188 17.1065 284.721 12 273.338 12C263.162 12 255.574 17.8099 255.574 26.2612C255.574 34.2722 260.92 37.7055 268.164 39.0254L275.924 40.4338C280.753 41.3143 282.65 42.635 282.65 45.4518C282.65 49.0613 279.029 50.9977 274.372 50.9977C269.715 50.9977 265.058 48.8851 264.541 44.2196H254.02C254.969 53.9908 263.161 58.8333 274.544 58.8333C284.978 58.8333 292.997 53.1989 292.997 44.6599C292.997 37.2653 288.686 32.9515 281.011 31.6308L281.013 31.6325ZM42.6126 28.3764C41.7501 23.5338 38.9041 20.4522 33.9028 20.4522H33.9037C26.9188 20.4522 23.0386 26.262 23.0386 35.4175C23.0386 44.573 26.9188 50.3829 33.9037 50.3829C38.905 50.3829 41.7509 47.2144 42.6134 42.4604H53.0473C51.8395 52.4955 44.8547 58.8342 33.9896 58.8342C21.141 58.8342 12 49.855 12 35.4175C12 20.9801 21.141 12.0009 33.9896 12.0009C44.8547 12.0009 51.8395 18.4281 53.0464 28.3764H42.6126ZM180.538 46.7733H180.71L192.61 13.0576H203.389L186.574 57.7774H174.502L157.255 13.0576H168.378L180.538 46.7733ZM131.776 12.4837C133.062 12.1686 134.437 12.0009 135.886 12.0009H135.887C145.89 12.0009 151.927 18.3395 151.927 29.0797V57.7775H140.889V31.7203C140.889 24.5897 137.612 20.8924 132.093 20.8924C126.574 20.8924 122.262 24.502 122.262 33.4812V57.7783H111.225V13.0576H122.09V22.5963C122.09 22.5963 123.354 15.7646 129.77 13.1223C130.407 12.8703 131.071 12.6574 131.761 12.4871C131.766 12.4862 131.771 12.4854 131.776 12.4837ZM100.251 29.3437C100.251 17.723 93.4381 12.0009 81.5379 12.0009C70.9455 12.0009 63.6846 17.4412 62.5352 26.7346C62.486 27.1468 62.4335 27.9966 62.4452 28.3755H73.0667L73.0664 28.2787V28.2786C73.0654 27.9747 73.0634 27.4003 73.1192 26.9075C73.5872 22.9513 76.4907 20.3636 81.1926 20.3636C85.2547 20.3636 88.1782 22.1058 89.1341 25.683L89.1386 25.7003L89.1458 25.7281C89.5612 27.4141 89.0665 30.5179 85.1804 31.0654C85.0436 31.085 84.9018 31.1012 84.7567 31.114H84.7492L76.3631 32.0711C67.4815 33.127 60.5826 36.8251 60.5826 45.8043C60.5826 53.9031 66.7917 58.7448 75.3288 58.7448C82.3136 58.7448 87.8329 55.8394 89.9023 50.7337C89.9023 52.9349 90.075 55.3115 90.5062 57.7766H101.113C100.423 54.167 100.25 50.7337 100.25 46.5962V29.342L100.251 29.3437ZM89.4719 40.4355C89.4719 47.4784 84.0394 50.9117 78.3482 50.9117C73.95 50.9117 71.5361 48.7105 71.5361 45.1895C71.5361 40.5241 75.0719 39.4673 79.7287 38.8508L84.8793 38.2463C88.7663 37.7277 89.4727 34.9305 89.4727 34.9305V40.4364L89.4719 40.4355ZM227.347 12.0009C239.247 12.0009 246.059 17.723 246.059 29.3437V46.5962C246.059 50.7337 246.232 54.167 246.921 57.7766H236.315C235.884 55.3115 235.711 52.9349 235.711 50.7337C233.642 55.8394 228.122 58.7448 221.137 58.7448C212.6 58.7448 206.391 53.9031 206.391 45.8043C206.391 36.8251 213.29 33.127 222.172 32.0711L230.558 31.114H230.565C230.711 31.1012 230.852 31.085 230.989 31.0654C234.875 30.5179 235.37 27.4141 234.954 25.7281C234.953 25.7237 234.951 25.7149 234.949 25.706C234.946 25.6961 234.944 25.6862 234.943 25.683C233.987 22.1058 231.063 20.3636 227.001 20.3636C222.299 20.3636 219.396 22.9513 218.928 26.9075C218.872 27.4004 218.874 27.9749 218.875 28.2788C218.875 28.3151 218.875 28.3475 218.875 28.3755H208.254C208.242 27.9966 208.295 27.1468 208.344 26.7346C209.493 17.4412 216.754 12.0009 227.347 12.0009ZM224.156 50.9117C229.847 50.9117 235.28 47.4784 235.28 40.4355L235.281 40.4364V34.9305C235.281 34.9305 234.574 37.7277 230.687 38.2463L225.537 38.8508C220.88 39.4673 217.344 40.5241 217.344 45.1895C217.344 48.7105 219.758 50.9117 224.156 50.9117Z"
              fill="white"/>
    </g>
    <g filter="url(#filter1_f_1778_17906)">
        <path fill-rule="evenodd" clip-rule="evenodd"
              d="M281.013 31.6325L272.476 30.1356C267.992 29.3437 265.75 28.1992 265.75 25.1176C265.75 22.036 268.767 19.9233 273.424 19.9233C278.081 19.9233 281.616 22.2122 282.047 25.7332H292.137C291.188 17.1065 284.721 12 273.338 12C263.162 12 255.574 17.8099 255.574 26.2612C255.574 34.2722 260.92 37.7055 268.164 39.0254L275.924 40.4338C280.753 41.3143 282.65 42.635 282.65 45.4518C282.65 49.0613 279.029 50.9977 274.372 50.9977C269.715 50.9977 265.058 48.8851 264.541 44.2196H254.02C254.969 53.9908 263.161 58.8333 274.544 58.8333C284.978 58.8333 292.997 53.1989 292.997 44.6599C292.997 37.2653 288.686 32.9515 281.011 31.6308L281.013 31.6325ZM42.6126 28.3764C41.7501 23.5338 38.9041 20.4522 33.9028 20.4522H33.9037C26.9188 20.4522 23.0386 26.262 23.0386 35.4175C23.0386 44.573 26.9188 50.3829 33.9037 50.3829C38.905 50.3829 41.7509 47.2144 42.6134 42.4604H53.0473C51.8395 52.4955 44.8547 58.8342 33.9896 58.8342C21.141 58.8342 12 49.855 12 35.4175C12 20.9801 21.141 12.0009 33.9896 12.0009C44.8547 12.0009 51.8395 18.4281 53.0464 28.3764H42.6126ZM180.538 46.7733H180.71L192.61 13.0576H203.389L186.574 57.7774H174.502L157.255 13.0576H168.378L180.538 46.7733ZM131.776 12.4837C133.062 12.1686 134.437 12.0009 135.886 12.0009H135.887C145.89 12.0009 151.927 18.3395 151.927 29.0797V57.7775H140.889V31.7203C140.889 24.5897 137.612 20.8924 132.093 20.8924C126.574 20.8924 122.262 24.502 122.262 33.4812V57.7783H111.225V13.0576H122.09V22.5963C122.09 22.5963 123.354 15.7646 129.77 13.1223C130.407 12.8703 131.071 12.6574 131.761 12.4871C131.766 12.4862 131.771 12.4854 131.776 12.4837ZM100.251 29.3437C100.251 17.723 93.4381 12.0009 81.5379 12.0009C70.9455 12.0009 63.6846 17.4412 62.5352 26.7346C62.486 27.1468 62.4335 27.9966 62.4452 28.3755H73.0667L73.0664 28.2787V28.2786C73.0654 27.9747 73.0634 27.4003 73.1192 26.9075C73.5872 22.9513 76.4907 20.3636 81.1926 20.3636C85.2547 20.3636 88.1782 22.1058 89.1341 25.683L89.1386 25.7003L89.1458 25.7281C89.5612 27.4141 89.0665 30.5179 85.1804 31.0654C85.0436 31.085 84.9018 31.1012 84.7567 31.114H84.7492L76.3631 32.0711C67.4815 33.127 60.5826 36.8251 60.5826 45.8043C60.5826 53.9031 66.7917 58.7448 75.3288 58.7448C82.3136 58.7448 87.8329 55.8394 89.9023 50.7337C89.9023 52.9349 90.075 55.3115 90.5062 57.7766H101.113C100.423 54.167 100.25 50.7337 100.25 46.5962V29.342L100.251 29.3437ZM89.4719 40.4355C89.4719 47.4784 84.0394 50.9117 78.3482 50.9117C73.95 50.9117 71.5361 48.7105 71.5361 45.1895C71.5361 40.5241 75.0719 39.4673 79.7287 38.8508L84.8793 38.2463C88.7663 37.7277 89.4727 34.9305 89.4727 34.9305V40.4364L89.4719 40.4355ZM227.347 12.0009C239.247 12.0009 246.059 17.723 246.059 29.3437V46.5962C246.059 50.7337 246.232 54.167 246.921 57.7766H236.315C235.884 55.3115 235.711 52.9349 235.711 50.7337C233.642 55.8394 228.122 58.7448 221.137 58.7448C212.6 58.7448 206.391 53.9031 206.391 45.8043C206.391 36.8251 213.29 33.127 222.172 32.0711L230.558 31.114H230.565C230.711 31.1012 230.852 31.085 230.989 31.0654C234.875 30.5179 235.37 27.4141 234.954 25.7281C234.953 25.7237 234.951 25.7149 234.949 25.706C234.946 25.6961 234.944 25.6862 234.943 25.683C233.987 22.1058 231.063 20.3636 227.001 20.3636C222.299 20.3636 219.396 22.9513 218.928 26.9075C218.872 27.4004 218.874 27.9749 218.875 28.2788C218.875 28.3151 218.875 28.3475 218.875 28.3755H208.254C208.242 27.9966 208.295 27.1468 208.344 26.7346C209.493 17.4412 216.754 12.0009 227.347 12.0009ZM224.156 50.9117C229.847 50.9117 235.28 47.4784 235.28 40.4355L235.281 40.4364V34.9305C235.281 34.9305 234.574 37.7277 230.687 38.2463L225.537 38.8508C220.88 39.4673 217.344 40.5241 217.344 45.1895C217.344 48.7105 219.758 50.9117 224.156 50.9117Z"
              fill="white"/>
    </g>
    <g filter="url(#filter2_f_1778_17906)">
        <path fill-rule="evenodd" clip-rule="evenodd"
              d="M281.013 31.6325L272.476 30.1356C267.992 29.3437 265.75 28.1992 265.75 25.1176C265.75 22.036 268.767 19.9233 273.424 19.9233C278.081 19.9233 281.616 22.2122 282.047 25.7332H292.137C291.188 17.1065 284.721 12 273.338 12C263.162 12 255.574 17.8099 255.574 26.2612C255.574 34.2722 260.92 37.7055 268.164 39.0254L275.924 40.4338C280.753 41.3143 282.65 42.635 282.65 45.4518C282.65 49.0613 279.029 50.9977 274.372 50.9977C269.715 50.9977 265.058 48.8851 264.541 44.2196H254.02C254.969 53.9908 263.161 58.8333 274.544 58.8333C284.978 58.8333 292.997 53.1989 292.997 44.6599C292.997 37.2653 288.686 32.9515 281.011 31.6308L281.013 31.6325ZM42.6126 28.3763C41.7501 23.5338 38.9041 20.4521 33.9028 20.4521H33.9037C26.9188 20.4521 23.0386 26.262 23.0386 35.4175C23.0386 44.573 26.9188 50.3829 33.9037 50.3829C38.905 50.3829 41.7509 47.2144 42.6134 42.4604H53.0473C51.8395 52.4955 44.8547 58.8342 33.9896 58.8342C21.141 58.8342 12 49.855 12 35.4175C12 20.9801 21.141 12.0009 33.9896 12.0009C44.8547 12.0009 51.8395 18.4281 53.0464 28.3763H42.6126ZM180.538 46.7733H180.71L192.61 13.0576H203.389L186.574 57.7775H174.502L157.255 13.0576H168.378L180.538 46.7733ZM131.776 12.4837C133.062 12.1686 134.437 12.0009 135.886 12.0009H135.887C145.89 12.0009 151.927 18.3395 151.927 29.0797V57.7775H140.889V31.7202C140.889 24.5897 137.612 20.8924 132.093 20.8924C126.574 20.8924 122.262 24.5019 122.262 33.4812V57.7783H111.225V13.0576H122.09V22.5963C122.09 22.5963 123.354 15.7645 129.77 13.1223C130.407 12.8702 131.071 12.6574 131.761 12.4871C131.766 12.4862 131.771 12.4854 131.776 12.4837ZM100.251 29.3437C100.251 17.723 93.4381 12.0009 81.5379 12.0009C70.9455 12.0009 63.6846 17.4412 62.5352 26.7346C62.486 27.1468 62.4335 27.9966 62.4452 28.3755H73.0667L73.0664 28.2787V28.2786C73.0654 27.9746 73.0634 27.4003 73.1192 26.9075C73.5872 22.9513 76.4907 20.3636 81.1926 20.3636C85.2547 20.3636 88.1782 22.1058 89.1341 25.683L89.1402 25.7066L89.1458 25.7281C89.5612 27.4141 89.0665 30.5179 85.1804 31.0654C85.0436 31.085 84.9018 31.1012 84.7567 31.114H84.7492L76.3631 32.0711C67.4815 33.1269 60.5826 36.8251 60.5826 45.8043C60.5826 53.9031 66.7917 58.7448 75.3288 58.7448C82.3136 58.7448 87.8329 55.8394 89.9023 50.7337C89.9023 52.9349 90.075 55.3115 90.5062 57.7766H101.113C100.423 54.167 100.25 50.7337 100.25 46.5962V29.342L100.251 29.3437ZM89.4719 40.4355C89.4719 47.4784 84.0394 50.9117 78.3482 50.9117C73.95 50.9117 71.5361 48.7105 71.5361 45.1895C71.5361 40.5241 75.0719 39.4673 79.7287 38.8508L84.8793 38.2463C88.7663 37.7277 89.4727 34.9305 89.4727 34.9305V40.4363L89.4719 40.4355ZM227.347 12.0009C239.247 12.0009 246.059 17.723 246.059 29.3437V46.5962C246.059 50.7337 246.232 54.167 246.921 57.7766H236.315C235.884 55.3115 235.711 52.9349 235.711 50.7337C233.642 55.8394 228.122 58.7448 221.137 58.7448C212.6 58.7448 206.391 53.9031 206.391 45.8043C206.391 36.8251 213.29 33.1269 222.172 32.0711L230.558 31.114H230.565C230.71 31.1012 230.852 31.085 230.989 31.0654C234.875 30.5179 235.37 27.4141 234.954 25.7281C234.952 25.7188 234.944 25.689 234.943 25.683C233.987 22.1058 231.063 20.3636 227.001 20.3636C222.299 20.3636 219.396 22.9513 218.928 26.9075C218.872 27.4004 218.874 27.9748 218.875 28.2788C218.875 28.3151 218.875 28.3475 218.875 28.3755H208.254C208.242 27.9966 208.295 27.1468 208.344 26.7346C209.493 17.4412 216.754 12.0009 227.347 12.0009ZM224.156 50.9117C229.847 50.9117 235.28 47.4784 235.28 40.4355L235.281 40.4363V34.9305C235.281 34.9305 234.574 37.7277 230.687 38.2463L225.537 38.8508C220.88 39.4673 217.344 40.5241 217.344 45.1895C217.344 48.7105 219.758 50.9117 224.156 50.9117Z"
              fill="white"/>
    </g>
    <defs>
        <filter id="filter0_f_1778_17906" x="0.669355" y="0.669355" width="303.661" height="69.4955"
                filterUnits="userSpaceOnUse" color-interpolation-filters="sRGB">
            <feFlood flood-opacity="0" result="BackgroundImageFix"/>
            <feBlend mode="normal" in="SourceGraphic" in2="BackgroundImageFix" result="shape"/>
            <feGaussianBlur stdDeviation="5.66532" result="effect1_foregroundBlur_1778_17906"/>
        </filter>
        <filter id="filter1_f_1778_17906" x="7.46774" y="7.46774" width="290.064" height="55.8987"
                filterUnits="userSpaceOnUse" color-interpolation-filters="sRGB">
            <feFlood flood-opacity="0" result="BackgroundImageFix"/>
            <feBlend mode="normal" in="SourceGraphic" in2="BackgroundImageFix" result="shape"/>
            <feGaussianBlur stdDeviation="2.26613" result="effect1_foregroundBlur_1778_17906"/>
        </filter>
        <filter id="filter2_f_1778_17906" x="8.97849" y="8.97849" width="287.043" height="52.8772"
                filterUnits="userSpaceOnUse" color-interpolation-filters="sRGB">
            <feFlood flood-opacity="0" result="BackgroundImageFix"/>
            <feBlend mode="normal" in="SourceGraphic" in2="BackgroundImageFix" result="shape"/>
            <feGaussianBlur stdDeviation="1.51075" result="effect1_foregroundBlur_1778_17906"/>
        </filter>
    </defs>
</svg>
