<svg width="78" height="14" viewBox="0 0 78 14" fill="none" xmlns="http://www.w3.org/2000/svg">
    <path fill-rule="evenodd" clip-rule="evenodd"
          d="M74.6726 5.9496L72.3029 5.53407C71.0582 5.31425 70.4358 4.99658 70.4358 4.14118C70.4358 3.28578 71.2735 2.69936 72.5662 2.69936C73.8588 2.69936 74.84 3.33471 74.9597 4.31207H77.7604C77.4971 1.91747 75.7018 0.5 72.5421 0.5C69.7176 0.5 67.6112 2.11271 67.6112 4.45862C67.6112 6.68233 69.0953 7.63535 71.1059 8.00171L73.2601 8.39265C74.6004 8.63705 75.1271 9.00365 75.1271 9.78555C75.1271 10.7875 74.1218 11.325 72.8292 11.325C71.5366 11.325 70.2439 10.7386 70.1004 9.44353H67.1801C67.4433 12.1558 69.7174 13.5 72.8769 13.5C75.7731 13.5 77.9993 11.936 77.9993 9.56573C77.9993 7.51315 76.8025 6.31573 74.6722 5.94913L74.6726 5.9496ZM8.49744 5.04574C8.25804 3.70154 7.46805 2.84614 6.07979 2.84614H6.08002C4.14117 2.84614 3.06409 4.45885 3.06409 7.00024C3.06409 9.54162 4.14117 11.1543 6.08002 11.1543C7.46828 11.1543 8.25827 10.2748 8.49767 8.9552H11.3939C11.0586 11.7407 9.1198 13.5002 6.10387 13.5002C2.53736 13.5002 0 11.0078 0 7.00024C0 2.99269 2.53736 0.500236 6.10387 0.500236C9.1198 0.500236 11.0586 2.28431 11.3937 5.04574H8.49744ZM46.7828 10.1524H46.8305L50.1338 0.793561H53.1259L48.4582 13.2069H45.1072L40.3199 0.793561H43.4076L46.7828 10.1524ZM33.2475 0.634254C33.6043 0.546799 33.9861 0.500236 34.3882 0.500236H34.3887C37.1652 0.500236 38.8408 2.25973 38.8408 5.24098V13.2069H35.777V5.97394C35.777 3.99464 34.8675 2.96834 33.3355 2.96834C31.8034 2.96834 30.6066 3.97029 30.6066 6.46274V13.2071H27.5428V0.793563H30.5587V3.44131C30.5587 3.44131 30.9097 1.54496 32.6906 0.811527C32.8673 0.741563 33.0516 0.682472 33.2433 0.635199C33.2447 0.634963 33.2461 0.634727 33.2475 0.634254ZM24.4967 5.31425C24.4967 2.0886 22.6056 0.500236 19.3023 0.500236C16.3621 0.500236 14.3466 2.01036 14.0276 4.59004C14.0139 4.70444 13.9993 4.94033 14.0026 5.04551H16.9509L16.9508 5.01864V5.01861C16.9505 4.93423 16.95 4.77481 16.9655 4.63802C17.0954 3.53987 17.9013 2.82156 19.2065 2.82156C20.334 2.82156 21.1456 3.30516 21.4109 4.29813L21.4141 4.31065C21.5294 4.77865 21.3921 5.6402 20.3134 5.79218C20.2755 5.79762 20.2361 5.80211 20.1958 5.80565H20.1937L17.8659 6.07133C15.4006 6.36442 13.4856 7.39094 13.4856 9.8834C13.4856 12.1315 15.2091 13.4754 17.5788 13.4754C19.5177 13.4754 21.0497 12.6689 21.6241 11.2517C21.6241 11.8627 21.6721 12.5224 21.7918 13.2067H24.7359C24.5444 12.2047 24.4965 11.2517 24.4965 10.1032V5.31378L24.4967 5.31425ZM21.5047 8.39313C21.5047 10.3481 19.9967 11.3011 18.417 11.3011C17.1961 11.3011 16.526 10.6901 16.526 9.71274C16.526 8.41771 17.5075 8.12438 18.8001 7.95325L20.2298 7.78544C21.3088 7.64149 21.5049 6.86504 21.5049 6.86504V8.39336L21.5047 8.39313ZM59.7759 0.500236C63.0792 0.500236 64.9701 2.0886 64.9701 5.31425V10.1032C64.9701 11.2517 65.018 12.2047 65.2095 13.2067H62.2653C62.1456 12.5224 62.0977 11.8627 62.0977 11.2517C61.5233 12.6689 59.9912 13.4754 58.0524 13.4754C55.6827 13.4754 53.9591 12.1315 53.9591 9.8834C53.9591 7.39094 55.8741 6.36442 58.3395 6.07133L60.6673 5.80565H60.6694C60.7097 5.80211 60.749 5.79762 60.787 5.79218C61.8657 5.6402 62.003 4.77865 61.8877 4.31065L61.8845 4.29813C61.6191 3.30516 60.8076 2.82156 59.6801 2.82156C58.3749 2.82156 57.569 3.53987 57.4391 4.63802C57.4236 4.77483 57.4241 4.93427 57.4244 5.01864C57.4244 5.02873 57.4245 5.03774 57.4245 5.04551H54.4762C54.4729 4.94033 54.4875 4.70444 54.5012 4.59004C54.8202 2.01036 56.8357 0.500236 59.7759 0.500236ZM58.8903 11.3011C60.47 11.3011 61.978 10.3481 61.978 8.39313L61.9782 8.39336V6.86504C61.9782 6.86504 61.7821 7.64149 60.7032 7.78544L59.2735 7.95325C57.9809 8.12438 56.9994 8.41771 56.9994 9.71274C56.9994 10.6901 57.6694 11.3011 58.8903 11.3011Z"
          fill="#1A171E"/>
</svg>
