<svg width="26" height="23" viewBox="0 0 26 23" fill="none" xmlns="http://www.w3.org/2000/svg">
    <path d="M0 6.35693C0.129422 6.25273 0.268089 6.15629 0.387111 6.04212C2.31689 4.1854 4.24436 2.32758 6.17182 0.467537C6.32089 0.324543 6.4584 0.170463 6.62133 -0.000244141C7.19564 0.581712 7.73529 1.1282 8.31538 1.7168C7.16907 2.83083 5.97538 3.99142 4.6904 5.23957C5.02898 5.23957 5.23236 5.23957 5.43689 5.23957C9.17049 5.23957 12.9041 5.26064 16.6377 5.23403C21.0126 5.20189 24.7428 8.11942 25.7134 11.998C25.8244 12.4425 25.9052 12.8926 26 13.3404V14.8923C25.8856 15.4122 25.8128 15.9431 25.651 16.4497C24.5001 20.0445 22.0041 22.2116 18.1353 22.8856C17.6661 22.9676 17.1808 22.9931 16.7024 22.9942C12.2165 23.002 7.73067 22.9998 3.2448 22.9998C3.11191 22.9998 2.98018 22.9998 2.81031 22.9998V20.8792C3.01831 20.8737 3.24018 20.8615 3.4632 20.8615C7.83351 20.8615 12.2038 20.867 16.5741 20.857C18.6125 20.8526 20.399 20.2008 21.7892 18.7476C23.6681 16.7834 24.1985 14.4744 23.2914 11.967C22.4016 9.50282 20.5319 8.03185 17.8383 7.5674C17.4997 7.50865 17.1508 7.47428 16.8064 7.47428C12.8983 7.46763 8.98907 7.46985 5.08098 7.46985C5.00471 7.46985 4.92844 7.46985 4.71698 7.46985C5.95573 8.7435 7.17369 9.89633 8.34889 11.0968C7.74107 11.6444 7.15636 12.1709 6.58898 12.6831C5.31671 11.477 3.9728 10.2089 2.63467 8.93416C1.88356 8.21808 1.14284 7.49313 0.392889 6.77594C0.272711 6.66066 0.131733 6.56976 0 6.46778C0 6.4312 0 6.39351 0 6.35693Z"
          fill="white"/>
</svg>
